<?xml version="1.0" encoding="utf-8"?>
<!-- Generator: Adobe Illustrator 21.0.0, SVG Export Plug-In . SVG Version: 6.00 Build 0)  -->
<svg version="1.1" id="Layer_1" xmlns="http://www.w3.org/2000/svg" xmlns:xlink="http://www.w3.org/1999/xlink" x="0px" y="0px"
	 viewBox="0 0 64 64" style="enable-background:new 0 0 64 64;" xml:space="preserve">
<style type="text/css">
	.st0{fill:#3C3C3C;}
	.st1{fill:none;stroke:#3C3C3C;stroke-width:4;stroke-linecap:round;stroke-linejoin:round;stroke-miterlimit:10;}
</style>
<g>
	<path class="st0" d="M50.9,11.8c0.7,0,1.3,0.6,1.3,1.3v45.6c0,0.7-0.6,1.3-1.3,1.3H5.3C4.6,60,4,59.4,4,58.7V13.1
		c0-0.7,0.6-1.3,1.3-1.3H50.9 M50.9,7.8H5.3C2.4,7.8,0,10.2,0,13.1v45.6C0,61.6,2.4,64,5.3,64h45.6c2.9,0,5.3-2.4,5.3-5.3V13.1
		C56.2,10.2,53.8,7.8,50.9,7.8L50.9,7.8z"/>
</g>
<g>
	<path class="st0" d="M58.7,0H13.1c-2.9,0-5.3,2.4-5.3,5.3v0c0,1.1,0.9,2,2,2h0c1.1,0,2-0.9,2-2v0c0-0.7,0.6-1.3,1.3-1.3h45.6
		C59.4,4,60,4.6,60,5.3v45.6c0,0.7-0.6,1.3-1.3,1.3h0c-1.1,0-2,0.9-2,2v0c0,1.1,0.9,2,2,2h0c2.9,0,5.3-2.4,5.3-5.3V5.3
		C64,2.4,61.6,0,58.7,0z"/>
</g>
<path class="st1" d="M48.3,46.5c-0.8-1.3-1.9-2.9-3-4.1c-1.5-1.8-3.7-2.3-5.7-0.2l-3.5,3.3L28.5,36c-2.8-3.5-7.4-3.5-10.2,0
	L7.7,49.2"/>
<circle class="st0" cx="39.2" cy="25.6" r="4.4"/>
</svg>
