<?xml version="1.0" encoding="utf-8"?>
<!-- Generator: Adobe Illustrator 21.0.0, SVG Export Plug-In . SVG Version: 6.00 Build 0)  -->
<svg version="1.1" id="Layer_1" xmlns="http://www.w3.org/2000/svg" xmlns:xlink="http://www.w3.org/1999/xlink" x="0px" y="0px"
	 viewBox="0 0 64 64" style="enable-background:new 0 0 64 64;" xml:space="preserve">
<style type="text/css">
	.st0{fill:#3C3C3C;}
</style>
<g>
	<path class="st0" d="M50.9,11.8c0.7,0,1.3,0.6,1.3,1.3v45.6c0,0.7-0.6,1.3-1.3,1.3H5.3C4.6,60,4,59.4,4,58.7V13.1
		c0-0.7,0.6-1.3,1.3-1.3H50.9 M50.9,7.8H5.3C2.4,7.8,0,10.2,0,13.1v45.6C0,61.6,2.4,64,5.3,64h45.6c2.9,0,5.3-2.4,5.3-5.3V13.1
		C56.2,10.2,53.8,7.8,50.9,7.8L50.9,7.8z"/>
</g>
<g>
	<path class="st0" d="M58.7,0H13.1c-2.9,0-5.3,2.4-5.3,5.3v0c0,1.1,0.9,2,2,2h0c1.1,0,2-0.9,2-2v0c0-0.7,0.6-1.3,1.3-1.3h45.6
		C59.4,4,60,4.6,60,5.3v45.6c0,0.7-0.6,1.3-1.3,1.3h0c-1.1,0-2,0.9-2,2v0c0,1.1,0.9,2,2,2h0c2.9,0,5.3-2.4,5.3-5.3V5.3
		C64,2.4,61.6,0,58.7,0z"/>
</g>
<path class="st0" d="M20.8,24.8L20.8,24.8c3.5,0,7.3,7.1,7.3,7.1s3.5-7.1,7.3-7.1l0.1,0l0,0h0c1.4,0,3.2,0.5,4.3,2
	c1.6,2.1,1.2,5.5,0.5,7.9c-2.2,6.7-9,11.6-12.3,13.6c-3.3-2-10.1-6.9-12.3-13.7c-0.7-2.4-1.1-5.8,0.5-7.9c1.1-1.5,3-2,4.3-2h0
	L20.8,24.8L20.8,24.8 M20.8,20.8c-0.1,0-0.1,0-0.2,0c-5,0-11.7,4-8.7,15.1C15.4,46.7,28.1,53,28.1,53s12.7-6.3,16.1-17.1
	c3.1-11-3.7-15.1-8.7-15.1c-0.1,0-0.1,0-0.2,0c-3,0-5.8,1.6-7.3,4.3C26.6,22.5,23.8,20.8,20.8,20.8L20.8,20.8z"/>
</svg>
