<svg width="80" height="80" viewBox="0 0 80 80" fill="none" xmlns="http://www.w3.org/2000/svg">
<path d="M40 80C62.0914 80 80 62.0914 80 40C80 17.9086 62.0914 0 40 0C17.9086 0 0 17.9086 0 40C0 62.0914 17.9086 80 40 80Z" fill="#707070"/>
<path d="M40 75.875C59.8132 75.875 75.875 59.8132 75.875 40C75.875 20.1868 59.8132 4.125 40 4.125C20.1868 4.125 4.125 20.1868 4.125 40C4.125 59.8132 20.1868 75.875 40 75.875Z" fill="#39B4EA"/>
<path d="M74 51.375C72.75 49.25 70.875 46.625 69.125 44.625C66.625 41.75 63.125 40.875 59.875 44.375L54.125 49.75L41.75 34.125C37.25 28.375 29.625 28.375 25.125 34.125L7.875 55.75C13.75 67.625 25.875 75.75 40 75.75C55.875 75.875 69.25 65.625 74 51.375Z" fill="#4F5D73"/>
<path d="M55.875 31.625C59.3268 31.625 62.125 28.8268 62.125 25.375C62.125 21.9232 59.3268 19.125 55.875 19.125C52.4232 19.125 49.625 21.9232 49.625 25.375C49.625 28.8268 52.4232 31.625 55.875 31.625Z" fill="#FFC76C"/>
</svg>
